<?xml version="1.0" encoding="iso-8859-1"?>
<!-- Uploaded to: SVG Repo, www.svgrepo.com, Generator: SVG Repo Mixer Tools -->
<svg fill="#000000" version="1.1" id="Layer_1" xmlns="http://www.w3.org/2000/svg" xmlns:xlink="http://www.w3.org/1999/xlink" 
	 viewBox="0 0 512.001 512.001" xml:space="preserve">
<g>
	<g>
		<path d="M438.435,0H73.565v461.373h216.042v50.628l41.293-16.055l41.293,16.055v-50.628h66.243L438.435,0L438.435,0z
			 M320.028,467.533v-6.159v-21.25c0.341,0.062,0.686,0.105,1.027,0.161c0.341,0.056,0.681,0.111,1.023,0.16
			c0.588,0.085,1.178,0.158,1.77,0.226c0.41,0.048,0.818,0.097,1.23,0.137c0.512,0.049,1.026,0.082,1.541,0.118
			c0.479,0.033,0.956,0.073,1.438,0.095c0.438,0.02,0.877,0.022,1.316,0.033c0.509,0.012,1.014,0.039,1.525,0.039
			c0.513,0,1.02-0.026,1.53-0.039c0.437-0.01,0.874-0.013,1.31-0.033c0.484-0.022,0.962-0.062,1.443-0.095
			c0.512-0.035,1.024-0.069,1.535-0.117c0.414-0.04,0.823-0.089,1.234-0.137c0.59-0.068,1.179-0.14,1.766-0.225
			c0.343-0.05,0.684-0.105,1.025-0.16c0.342-0.056,0.687-0.099,1.027-0.161v21.25v6.157l-10.87-4.226L320.028,467.533z
			 M348.1,405.332c-0.522,0.358-1.053,0.699-1.592,1.022c-0.172,0.103-0.349,0.202-0.523,0.301
			c-0.445,0.256-0.896,0.498-1.352,0.729c-0.16,0.081-0.318,0.168-0.481,0.246c-0.557,0.27-1.123,0.518-1.693,0.753
			c-0.21,0.086-0.422,0.168-0.634,0.25c-0.495,0.191-0.995,0.37-1.499,0.533c-0.15,0.049-0.298,0.101-0.449,0.148
			c-0.589,0.182-1.184,0.341-1.784,0.486c-0.201,0.049-0.402,0.095-0.603,0.14c-0.618,0.137-1.239,0.261-1.867,0.358
			c-0.059,0.009-0.118,0.018-0.175,0.027c-0.644,0.096-1.294,0.166-1.947,0.222c-0.177,0.015-0.356,0.028-0.534,0.041
			c-0.687,0.046-1.375,0.078-2.068,0.078s-1.381-0.031-2.068-0.078c-0.178-0.012-0.357-0.025-0.534-0.041
			c-0.651-0.055-1.299-0.125-1.941-0.221c-0.062-0.009-0.125-0.019-0.187-0.028c-0.626-0.097-1.245-0.221-1.861-0.357
			c-0.202-0.045-0.404-0.091-0.603-0.14c-0.598-0.145-1.193-0.303-1.781-0.485c-0.153-0.048-0.303-0.1-0.454-0.15
			c-0.503-0.164-1.002-0.343-1.497-0.533c-0.212-0.082-0.424-0.164-0.634-0.25c-0.57-0.235-1.136-0.483-1.693-0.752
			c-0.162-0.079-0.32-0.165-0.482-0.247c-0.456-0.231-0.907-0.475-1.352-0.729c-0.174-0.099-0.351-0.198-0.523-0.301
			c-0.541-0.323-1.072-0.665-1.594-1.024c-8.004-5.496-13.266-14.709-13.266-25.13c0-16.8,13.668-30.467,30.468-30.467
			s30.467,13.668,30.467,30.467C361.367,390.624,356.105,399.836,348.1,405.332z M372.192,430.952v-6.053
			c12.04-11.131,19.597-27.046,19.597-44.697c0-33.574-27.315-60.889-60.889-60.889c-33.574,0-60.89,27.315-60.89,60.889
			c0,17.652,7.557,33.565,19.597,44.697v6.053h-185.62V30.422h304.027v400.53H372.192z"/>
	</g>
</g>
<g>
	<g>
		<rect x="135.579" y="364.989" width="102.754" height="30.422"/>
	</g>
</g>
<g>
	<g>
		<rect x="135.579" y="268.613" width="240.838" height="30.422"/>
	</g>
</g>
<g>
	<g>
		<rect x="135.579" y="217.911" width="240.838" height="30.422"/>
	</g>
</g>
<g>
	<g>
		<rect x="135.579" y="167.208" width="240.838" height="30.422"/>
	</g>
</g>
<g>
	<g>
		<rect x="135.579" y="116.505" width="240.838" height="30.422"/>
	</g>
</g>
<g>
	<g>
		<rect x="192.884" y="65.798" width="126.24" height="30.422"/>
	</g>
</g>
</svg>