<?xml version="1.0" encoding="utf-8"?><!-- Uploaded to: SVG Repo, www.svgrepo.com, Generator: SVG Repo Mixer Tools -->
<svg fill="#000000" width="800px" height="800px" viewBox="0 0 24 24" id="add-file" data-name="Flat Color" xmlns="http://www.w3.org/2000/svg" class="icon flat-color"><path id="primary" d="M19.71,4.29l-2-2A1,1,0,0,0,17,2H6A2,2,0,0,0,4,4V20a2,2,0,0,0,2,2H18a2,2,0,0,0,2-2V5A1,1,0,0,0,19.71,4.29Z" style="fill: rgb(0, 0, 0);"></path><path id="secondary" d="M12,16a1,1,0,0,1-1-1V13H9a1,1,0,0,1,0-2h2V9a1,1,0,0,1,2,0v2h2a1,1,0,0,1,0,2H13v2A1,1,0,0,1,12,16ZM17,4a1,1,0,0,0,1,1h2a1,1,0,0,0-.28-.71l-2-2A1,1,0,0,0,17,2Z" style="fill: rgb(44, 169, 188);"></path></svg>